<?xml version="1.0" encoding="UTF-8"?>
<svg id="Layer_1" data-name="Layer 1" xmlns="http://www.w3.org/2000/svg" width="29.5" height="29.5" viewBox="0 0 29.5 29.5">
  <path d="m12.5,13.9c-4,0-7.3-3.1-7.3-7S8.5,0,12.5,0s7.3,3.1,7.3,7-3.3,7-7.3,7Zm0-12.4c-3.2,0-5.8,2.5-5.8,5.5s2.6,5.5,5.8,5.5,5.8-2.5,5.8-5.5S15.6,1.5,12.5,1.5Z"/>
  <path d="m22.2,29.5c-4,0-7.3-3.1-7.3-7s3.3-7,7.3-7,7.3,3.1,7.3,7-3.3,7-7.3,7Zm0-12.4c-3.2,0-5.8,2.5-5.8,5.5s2.6,5.5,5.8,5.5,5.8-2.5,5.8-5.5-2.6-5.5-5.8-5.5Z"/>
  <path d="m.3,25.8c-.8-3.2-.2-5.8,1.6-7.7,5.2-5.3,18.9-2.7,19.5-2.5l-.3,1.5c-.1,0-13.5-2.6-18.1,2.1-1.5,1.5-1.8,3.6-1.2,6.3l-1.5.3Z"/>
  <rect x="22" y="18.5" width=".5" height="5.6" transform="translate(-8.6 22.7) rotate(-46.3)"/>
  <rect x="19.4" y="21.1" width="5.6" height=".5" transform="translate(-8.6 21.3) rotate(-43.7)"/>
  <rect x="19.8" y="24.6" width="4.9" height=".5"/>
</svg>