<?xml version="1.0" encoding="UTF-8"?>
<svg id="Layer_1" data-name="Layer 1" xmlns="http://www.w3.org/2000/svg" width="29.5" height="28.81" viewBox="0 0 29.5 28.81">
  <path d="m14.75,13.94c-4.12,0-7.47-3.13-7.47-6.97S10.63,0,14.75,0s7.47,3.13,7.47,6.97-3.35,6.97-7.47,6.97Zm0-12.44c-3.29,0-5.97,2.45-5.97,5.47s2.68,5.47,5.97,5.47,5.97-2.45,5.97-5.47-2.68-5.47-5.97-5.47Z"/>
  <path d="m14.85,28.81l-6.82-11.97c-.71-.45-3.96-2.27-6.53-.19v12.1H0v-12.77l.24-.22c3.01-2.79,7.06-1.26,8.78-.07l.14.1,5.51,9.67c1.01-2.19,3.17-6.54,5.66-9.62l.11-.14.16-.07c4.85-2.25,8.48.64,8.63.76l.28.22v12.14h-1.5v-11.39c-.82-.54-3.37-1.87-6.62-.44-3.21,4.03-5.91,10.43-5.94,10.49l-.59,1.4Z"/>
  <rect x="13.75" y="13.69" width="2" height="13.93"/>
</svg>