<?xml version="1.0" encoding="UTF-8"?>
<svg id="Layer_2" data-name="Layer 2" xmlns="http://www.w3.org/2000/svg" width="30.12" height="29.5" viewBox="0 0 30.12 29.5">
  <path d="m25.41,16.55l-1.35-1.2c-4.12-3.67-8.5-6.57-9.34-6.21-1.95,1.16-8.3,5.75-8.75,6.19l-.37.36-.54-.2c-.46-.22-.86-.41-.42-6.81l-4.64.86.28-1.13C.37,8.06,2.47-.17,7.66,0c3.78.13,6.33,1.35,7.3,1.9,1.21-.73,4.81-2.62,8.21-1.61,4.1,1.22,6.45,7.87,6.55,8.15l.4,1.15-5.13-.7.43,7.66ZM6.27,6.86l-.07.97c-.15,2.01-.26,4.3-.25,5.62,2.04-1.53,6.44-4.66,8.01-5.59,1.82-1.08,6.73,2.64,9.75,5.21l-.33-5.9,4.45.6c-.81-1.85-2.63-5.31-5.09-6.04-3.38-1-7.31,1.65-7.35,1.68l-.43.29-.42-.29s-2.62-1.75-6.94-1.9c-2.8-.11-4.7,3.71-5.53,6.13l4.2-.77Z"/>
  <path d="m25.19,29.5H5.24l.25-.94c.72-2.74,7.33-5.8,8.65-6.39l.22-.1.24.05c6.66,1.45,9.71,6.03,9.83,6.22l.76,1.16Zm-17.66-1.5h14.68c-1.27-1.33-3.79-3.45-7.69-4.36-2.29,1.04-5.62,2.88-6.99,4.36Z"/>
  <rect x="14.24" y="8.39" width="1.5" height="14.46" transform="translate(-.05 .04) rotate(-.17)"/>
</svg>