<?xml version="1.0" encoding="UTF-8"?>
<svg id="Layer_1" data-name="Layer 1" xmlns="http://www.w3.org/2000/svg" width="29.5" height="29.5" viewBox="0 0 29.5 29.5">
  <path d="m24.29,29.5H2.41c-1.33,0-2.41-1.09-2.41-2.42V2.42C0,1.09,1.08,0,2.41,0h21.88c1.33,0,2.41,1.09,2.41,2.42v6.28c0,.52.02,1.16-.47,1.65-.39.4-1.01.58-1.94.58h-7.05c-.5,0-.91.41-.91.92v4.83c0,.51.41.92.91.92h7.05c1,0,1.62.18,2.01.59.45.47.42,1.06.4,1.53,0,.1,0,.2,0,.31v7.04c0,1.34-1.08,2.42-2.41,2.42ZM2.41,1.5c-.5,0-.91.41-.91.92v24.65c0,.51.41.92.91.92h21.88c.5,0,.91-.42.91-.92v-7.04c0-.13,0-.25.01-.37,0-.15.02-.38,0-.45,0,.02-.19-.1-.91-.1h-7.05c-1.33,0-2.41-1.09-2.41-2.42v-4.83c0-1.34,1.08-2.42,2.41-2.42h7.05c.72,0,.87-.14.87-.14.04-.07.04-.39.04-.57v-.21s0-6.08,0-6.08c0-.51-.41-.92-.91-.92H2.41Z"/>
  <path d="m27.09,19.11h-9.86c-1.33,0-2.41-1.09-2.41-2.42v-4.83c0-1.34,1.08-2.42,2.41-2.42h9.86c1.33,0,2.41,1.09,2.41,2.42v4.83c0,1.34-1.08,2.42-2.41,2.42Zm-9.86-8.18c-.5,0-.91.41-.91.92v4.83c0,.51.41.92.91.92h9.86c.5,0,.91-.41.91-.92v-4.83c0-.51-.41-.92-.91-.92h-9.86Z"/>
  <path d="m19.43,15.02c-.59,0-1.08-.49-1.08-1.08s.48-1.08,1.08-1.08,1.08.48,1.08,1.08-.48,1.08-1.08,1.08Zm0-1.5c-.23,0-.42.19-.42.42s.19.42.42.42.42-.19.42-.42-.19-.42-.42-.42Z"/>
</svg>