<?xml version="1.0" encoding="UTF-8"?>
<svg id="Layer_1" data-name="Layer 1" xmlns="http://www.w3.org/2000/svg" width="29.94" height="29.26" viewBox="0 0 29.94 29.26">
  <path d="m15.79,17.56c-5.09,0-9.24-3.94-9.24-8.78S10.7,0,15.79,0s9.23,3.94,9.23,8.78-4.14,8.78-9.23,8.78Zm0-15.56c-3.99,0-7.24,3.04-7.24,6.78s3.25,6.78,7.24,6.78,7.23-3.04,7.23-6.78-3.25-6.78-7.23-6.78Z"/>
  <path d="m28,29.26c-3.05-11.52-12.07-11.16-12.15-11.16h-.07s-.07,0-.07,0c-10.53-.9-13.64,10.66-13.77,11.16l-1.94-.5c.03-.14,3.64-13.7,15.83-12.66,1.03,0,10.82.21,14.11,12.65l-1.93.51Z"/>
  <path d="m15.76,26.15c-.81,0-1.62-.29-2.26-.85l-6.26-5.59,1.33-1.49,6.26,5.59c.52.47,1.36.46,1.88-.01l6.02-5.57,1.36,1.47-6.02,5.57c-.64.59-1.47.89-2.3.89Z"/>
</svg>