<?xml version="1.0" encoding="UTF-8"?>
<svg id="Layer_2" data-name="Layer 2" xmlns="http://www.w3.org/2000/svg" width="29.5" height="29.5" viewBox="0 0 29.5 29.5">
  <path d="m16.22,29.5h-4.03c-1.17,0-2.11-.92-2.14-2.09-.02-.77-.17-2.15-1.04-2.72-.73-.48-1.97-.38-3.59.29-.95.39-2.04.06-2.6-.79l-1.73-2.5c-.09-.1-.49-.57-.4-1.16.04-.25.17-.6.6-.89.87-.57,2.07-2.36,1.97-4.1-.07-1.23-.78-2.2-2.13-2.88-.51-.26-.89-.71-1.05-1.28-.17-.58-.09-1.21.22-1.72l2.37-3.98c.3-.5.78-.85,1.34-.99.57-.14,1.16-.03,1.65.28,1.55.99,2.83,1.33,3.51.93.68-.4,1.01-1.68.92-3.61-.03-.6.19-1.19.6-1.62.4-.42.95-.66,1.53-.66h4.56c.58,0,1.15.24,1.55.66.41.42.61.98.59,1.56-.05,1.11.16,2.57,1.39,3.19,1.26.63,2.57.11,3.44-.43.49-.31,1.07-.4,1.63-.26.56.14,1.04.49,1.33.99l2.47,4.15c.57.96.3,2.22-.62,2.87-.79.56-2.12,1.67-2.1,2.87.01.81.65,1.64,1.88,2.45.5.33.85.86.96,1.45.1.58-.04,1.15-.38,1.62l-2.36,3.17c-.58.78-1.62,1.07-2.52.7-.84-.34-2.43-.81-3.73-.16-.95.48-1.64,1.51-2.04,3.07-.24.94-1.09,1.6-2.06,1.6Zm-8.38-6.62c.77,0,1.43.18,1.98.54,1.09.71,1.68,2.08,1.72,3.95,0,.35.29.63.64.63h4.03c.29,0,.54-.2.61-.47.52-2,1.47-3.36,2.82-4.04,1.73-.87,3.65-.42,4.96.11.28.11.58.03.75-.21l2.36-3.17c.13-.17.13-.35.11-.47-.03-.18-.14-.35-.3-.45-1.68-1.1-2.54-2.34-2.56-3.68-.03-1.8,1.47-3.23,2.73-4.12.29-.2.38-.58.2-.88l-2.47-4.14c-.09-.15-.23-.26-.4-.3-.17-.04-.33-.01-.48.08-1.2.75-3.03,1.45-4.91.5-1.52-.77-2.31-2.4-2.22-4.6,0-.17-.05-.33-.17-.46-.12-.13-.29-.2-.47-.2h-4.56c-.17,0-.33.07-.45.19-.13.14-.2.32-.19.52.13,2.63-.42,4.26-1.66,4.98-1.22.71-2.98.37-5.07-.97-.15-.1-.33-.13-.5-.09-.17.04-.31.14-.4.29l-2.37,3.98c-.1.16-.12.36-.07.54.03.09.1.26.29.36,2.31,1.17,2.88,2.9,2.95,4.13.12,2.12-1.17,4.35-2.48,5.32l1.78,2.57c.18.26.5.36.79.25,1.13-.46,2.13-.7,3-.7Z"/>
  <path d="m14.69,20.83c-2.97,0-5.39-2.43-5.39-5.42s2.42-5.42,5.39-5.42,5.39,2.43,5.39,5.42-2.42,5.42-5.39,5.42Zm0-9.33c-2.14,0-3.89,1.76-3.89,3.92s1.74,3.92,3.89,3.92,3.89-1.76,3.89-3.92-1.74-3.92-3.89-3.92Z"/>
</svg>