<?xml version="1.0" encoding="UTF-8"?>
<svg id="Layer_1" data-name="Layer 1" xmlns="http://www.w3.org/2000/svg" width="29" height="29" viewBox="0 0 29 29">
  <path d="m14.5,29C6.5,29,0,22.5,0,14.5S6.5,0,14.5,0s14.5,6.5,14.5,14.5-6.5,14.5-14.5,14.5Zm0-28C7.06,1,1,7.06,1,14.5s6.06,13.5,13.5,13.5,13.5-6.06,13.5-13.5S21.94,1,14.5,1Z"/>
  <path d="m14.47,17.97q-.51-.02-.47-2.46c.02-1.27.72-2.24,1.97-2.71,1.24-.47,2.07-1.61,2.07-2.82s-.58-2.12-1.74-2.5c-2.63-.87-5.41,2.79-5.44,2.83l-.8-.6c.13-.18,3.24-4.28,6.56-3.17,1.56.52,2.42,1.75,2.42,3.45s-1.09,3.14-2.71,3.76c-.88.34-1.31.92-1.33,1.79-.03,1.58-.02,1.84-.01,1.88l-.26.02.28.02-.53.53Z"/>
  <path d="m14.5,23.5c-1.1,0-2-.9-2-2s.9-2,2-2,2,.9,2,2-.9,2-2,2Zm0-3c-.55,0-1,.45-1,1s.45,1,1,1,1-.45,1-1-.45-1-1-1Z"/>
</svg>